<?xml version="1.0" standalone="no"?>
<!DOCTYPE svg PUBLIC "-//W3C//DTD SVG 20010904//EN"
 "http://www.w3.org/TR/2001/REC-SVG-20010904/DTD/svg10.dtd">
<svg version="1.0" xmlns="http://www.w3.org/2000/svg"
 width="400.000000pt" height="400.000000pt" viewBox="0 0 400.000000 400.000000"
 preserveAspectRatio="xMidYMid meet">

<g transform="translate(0.000000,400.000000) scale(0.100000,-0.100000)"
fill="#000000" stroke="none">
<path d="M1532 3798 c-9 -9 -12 -76 -12 -250 l0 -238 -442 -2 -443 -3 -3
-1340 c-1 -737 0 -1350 3 -1362 l5 -23 440 0 440 0 0 -184 c0 -144 3 -186 14
-195 9 -8 63 -11 167 -9 l154 3 3 193 2 192 110 0 110 0 2 -192 3 -193 154 -3
c104 -2 158 1 167 9 11 9 14 51 14 195 l0 184 458 0 c351 0 462 3 475 12 16
12 17 103 15 1363 l-3 1350 -472 3 -473 2 0 239 c0 191 -3 241 -14 250 -9 8
-63 11 -167 9 l-154 -3 -3 -247 -2 -248 -110 0 -110 0 -2 248 -3 247 -155 3
c-113 2 -159 -1 -168 -10z m1418 -1848 l0 -1000 -950 0 -950 0 0 430 0 430 23
0 c12 0 266 0 563 0 335 0 552 3 568 10 l26 10 0 128 c0 86 -4 132 -12 140 -9
9 -154 12 -590 12 l-578 0 0 420 0 420 950 0 950 0 0 -1000z"/>
</g>
</svg>
