<?xml version="1.0" standalone="no"?>
<!DOCTYPE svg PUBLIC "-//W3C//DTD SVG 20010904//EN"
 "http://www.w3.org/TR/2001/REC-SVG-20010904/DTD/svg10.dtd">
<svg version="1.0" xmlns="http://www.w3.org/2000/svg"
 width="320.000000pt" height="424.000000pt" viewBox="0 0 320.000000 424.000000"
 preserveAspectRatio="xMidYMid meet">

<g transform="translate(0.000000,424.000000) scale(0.100000,-0.100000)"
fill="#000000" stroke="none">
<path d="M1047 4234 c-4 -4 -7 -135 -7 -291 l0 -283 -517 -2 -518 -3 0 -1595
0 -1595 517 -3 518 -2 2 -228 3 -227 195 0 195 0 3 228 2 227 125 0 125 0 2
-227 3 -228 195 0 195 0 3 227 2 228 553 2 552 3 0 1595 0 1595 -552 3 -553 2
-2 288 -3 287 -195 0 -195 0 -3 -287 -2 -288 -125 0 -125 0 -2 288 -3 287
-191 3 c-104 1 -193 -1 -197 -4z m1663 -2174 l0 -1170 -1110 0 -1110 0 0 505
0 505 688 2 687 3 0 170 0 170 -687 3 -688 2 0 490 0 490 1110 0 1110 0 0
-1170z"/>
</g>
</svg>
