<?xml version="1.0" standalone="no"?>
<!DOCTYPE svg PUBLIC "-//W3C//DTD SVG 20010904//EN"
 "http://www.w3.org/TR/2001/REC-SVG-20010904/DTD/svg10.dtd">
<svg version="1.0" xmlns="http://www.w3.org/2000/svg"
 width="746.000000pt" height="223.000000pt" viewBox="0 0 746.000000 223.000000"
 preserveAspectRatio="xMidYMid meet">

<g transform="translate(0.000000,223.000000) scale(0.100000,-0.100000)"
fill="#000000" stroke="none">
<path d="M727 2123 c-4 -3 -7 -66 -7 -140 l0 -133 -245 0 -245 0 0 -755 0
-755 245 0 244 0 3 -107 3 -108 93 -3 92 -3 0 111 0 110 60 0 59 0 3 -107 3
-108 93 -3 92 -3 0 111 0 110 260 0 260 0 0 755 0 755 -260 0 -259 0 -3 138
-3 137 -90 0 -90 0 -3 -138 -3 -138 -57 3 -57 3 -3 138 -3 137 -88 0 c-48 0
-91 -3 -94 -7z m783 -1028 l0 -555 -522 2 -523 3 -3 237 -2 238 327 2 328 3 0
80 0 80 -327 3 -328 2 0 230 0 230 525 0 525 0 0 -555z"/>
<path d="M2822 1756 c-64 -21 -107 -59 -139 -123 -24 -50 -28 -70 -28 -143 0
-69 5 -94 23 -132 88 -179 347 -183 435 -7 72 144 31 320 -91 387 -53 30 -141
37 -200 18z m155 -120 c57 -61 64 -185 16 -267 -16 -27 -67 -59 -93 -59 -26 0
-77 32 -93 59 -46 77 -41 201 10 262 50 59 108 61 160 5z"/>
<path d="M3862 1756 c-64 -21 -107 -59 -139 -123 -24 -50 -28 -70 -28 -143 0
-69 5 -94 23 -132 88 -179 347 -183 435 -7 72 144 31 320 -91 387 -53 30 -141
37 -200 18z m155 -120 c57 -61 64 -185 16 -267 -16 -27 -67 -59 -93 -59 -26 0
-77 32 -93 59 -46 77 -41 201 10 262 50 59 108 61 160 5z"/>
<path d="M4950 1758 c-124 -35 -160 -170 -68 -255 13 -12 50 -34 83 -48 33
-15 68 -34 78 -42 24 -22 21 -59 -5 -77 -28 -20 -108 -21 -154 -1 -38 16 -36
18 -53 -47 -9 -37 -9 -37 27 -50 21 -7 73 -13 117 -13 69 0 86 4 126 27 52 31
79 76 79 133 0 72 -37 114 -147 165 -77 36 -83 41 -83 69 0 41 28 54 99 48 31
-2 63 -7 72 -11 12 -5 18 0 22 21 4 15 9 38 13 49 5 20 0 23 -46 33 -61 13
-112 13 -160 -1z"/>
<path d="M5428 1756 c-26 -7 -55 -19 -65 -26 -89 -68 -123 -132 -123 -235 0
-101 15 -142 69 -197 61 -61 133 -83 240 -74 41 3 79 10 84 15 5 5 6 27 2 48
l-6 40 -77 -4 c-95 -5 -135 13 -170 78 -19 36 -23 55 -20 106 4 70 23 103 79
142 31 21 42 23 111 18 l78 -5 11 40 c5 22 8 42 5 45 -9 10 -82 23 -126 22
-25 0 -66 -6 -92 -13z"/>
<path d="M6952 1756 c-64 -21 -107 -59 -139 -123 -24 -50 -28 -70 -28 -143 0
-69 5 -94 23 -132 88 -179 347 -183 435 -7 72 144 31 320 -91 387 -53 30 -141
37 -200 18z m155 -120 c57 -61 64 -185 16 -267 -16 -27 -67 -59 -93 -59 -26 0
-77 32 -93 59 -46 77 -41 201 10 262 50 59 108 61 160 5z"/>
<path d="M2130 1495 l0 -265 56 0 55 0 -3 190 c-2 105 -2 190 -1 190 2 0 12
-19 24 -42 11 -24 57 -109 102 -190 l82 -148 62 0 63 0 0 265 0 265 -56 0 -57
0 5 -186 5 -186 -37 80 c-21 43 -65 127 -100 186 l-62 106 -69 0 -69 0 0 -265z"/>
<path d="M3180 1753 c0 -3 37 -123 82 -265 l82 -259 70 3 69 3 88 263 87 262
-62 0 -63 0 -51 -177 c-28 -98 -54 -191 -58 -208 -6 -24 -8 -26 -11 -10 -2 11
-27 104 -55 208 l-51 187 -63 0 c-35 0 -64 -3 -64 -7z"/>
<path d="M4430 1495 l0 -265 165 0 165 0 0 50 0 50 -105 0 -105 0 0 60 0 60
95 0 95 0 0 50 0 50 -95 0 -95 0 0 55 0 55 100 0 100 0 0 50 0 50 -160 0 -160
0 0 -265z"/>
<path d="M5732 1567 c3 -180 5 -195 28 -242 43 -85 128 -120 238 -97 69 14
105 41 134 100 21 43 23 62 26 240 l4 192 -61 0 -61 0 0 -181 c0 -208 -8 -240
-66 -259 -44 -15 -83 3 -106 50 -15 29 -18 64 -18 213 l0 177 -61 0 -61 0 4
-193z"/>
<path d="M6293 1753 l-33 -4 0 -259 0 -259 47 -7 c25 -4 85 -4 132 -1 164 12
256 84 281 220 24 126 -22 231 -124 281 -52 27 -69 30 -165 32 -58 1 -121 0
-138 -3z m225 -103 c33 -15 47 -29 62 -62 27 -59 26 -133 -2 -188 -28 -54 -69
-80 -143 -87 l-55 -6 0 182 0 181 48 0 c26 0 66 -9 90 -20z"/>
<path d="M3077 1019 c-132 -31 -206 -126 -207 -264 0 -38 5 -87 11 -109 14
-52 80 -121 137 -143 56 -21 203 -24 270 -5 l42 13 0 139 0 140 -100 0 -100 0
0 -44 0 -45 43 -3 42 -3 3 -53 c3 -49 1 -53 -24 -63 -68 -25 -169 30 -194 107
-16 48 -6 141 18 173 40 54 68 66 150 66 42 0 87 -3 98 -8 19 -7 23 -3 33 37
6 25 11 47 11 50 0 9 -101 26 -148 25 -26 -1 -64 -5 -85 -10z"/>
<path d="M2153 1013 l-33 -4 0 -259 0 -259 47 -7 c25 -4 85 -4 132 -1 164 12
256 84 281 220 24 126 -22 231 -124 281 -52 27 -69 30 -165 32 -58 1 -121 0
-138 -3z m225 -103 c33 -15 47 -29 62 -62 27 -59 26 -133 -2 -188 -28 -54 -69
-80 -143 -87 l-55 -6 0 182 0 181 48 0 c26 0 66 -9 90 -20z"/>
<path d="M2670 755 l0 -265 60 0 60 0 0 265 0 265 -60 0 -60 0 0 -265z"/>
<path d="M3420 755 l0 -265 60 0 60 0 0 265 0 265 -60 0 -60 0 0 -265z"/>
<path d="M3600 970 l0 -50 70 0 70 0 0 -215 0 -215 60 0 60 0 0 215 0 215 70
0 70 0 0 50 0 50 -200 0 -200 0 0 -50z"/>
<path d="M4121 988 c-6 -18 -40 -131 -76 -251 -36 -119 -68 -224 -72 -233 -5
-13 4 -15 58 -12 l63 3 18 63 19 63 77 -3 76 -3 19 -62 19 -63 65 0 c51 0 64
3 60 14 -3 7 -40 126 -83 265 l-77 251 -78 0 -77 0 -11 -32z m139 -270 c0 -5
-25 -8 -56 -8 -54 0 -56 1 -50 23 4 12 16 62 28 111 l21 89 28 -104 c16 -57
29 -107 29 -111z"/>
<path d="M4530 755 l0 -265 165 0 165 0 0 50 0 50 -105 0 -105 0 0 215 0 215
-60 0 -60 0 0 -265z"/>
</g>
</svg>
