<?xml version="1.0" standalone="no"?>
<!DOCTYPE svg PUBLIC "-//W3C//DTD SVG 20010904//EN"
 "http://www.w3.org/TR/2001/REC-SVG-20010904/DTD/svg10.dtd">
<svg version="1.0" xmlns="http://www.w3.org/2000/svg"
 width="400.000000pt" height="400.000000pt" viewBox="0 0 400.000000 400.000000"
 preserveAspectRatio="xMidYMid meet">

<g transform="translate(0.000000,400.000000) scale(0.100000,-0.100000)"
fill="#000000" stroke="none">
<path d="M1150 3506 c-30 -11 -290 -159 -525 -301 -38 -23 -115 -68 -170 -100
-55 -32 -115 -72 -133 -89 -59 -56 -62 -80 -62 -567 0 -492 2 -509 69 -574 42
-41 774 -469 831 -486 48 -15 115 -5 172 24 24 13 254 146 513 296 259 151
484 282 500 291 17 10 71 41 120 70 194 114 223 129 264 140 62 16 130 -1 229
-60 45 -28 85 -50 87 -50 3 0 42 -23 86 -50 44 -28 84 -50 87 -51 4 0 32 -17
62 -37 41 -28 62 -51 83 -91 l27 -55 0 -275 c-1 -371 13 -344 -264 -511 -270
-162 -270 -162 -346 -158 -63 3 -73 8 -285 131 -121 70 -233 139 -249 153 -56
53 -66 91 -66 277 0 93 -4 167 -8 165 -5 -1 -81 -45 -170 -97 l-162 -94 0
-176 c0 -192 9 -228 67 -283 48 -44 793 -470 841 -481 82 -17 96 -10 537 248
77 45 193 112 258 149 123 72 170 116 187 176 6 20 10 230 10 505 0 437 -2
473 -19 510 -28 60 -71 95 -246 196 -88 51 -230 133 -315 182 -85 50 -186 108
-225 130 -58 34 -81 42 -135 45 -77 4 -73 6 -395 -184 -121 -72 -292 -171
-380 -219 -88 -49 -272 -156 -410 -239 -321 -192 -327 -195 -395 -195 -69 -1
-91 10 -320 149 -230 140 -243 149 -269 204 -21 42 -22 57 -21 327 1 378 -11
353 245 501 77 44 169 97 205 118 81 49 138 62 201 49 54 -12 446 -243 503
-297 54 -50 66 -106 66 -294 l0 -158 38 23 c35 23 150 90 255 151 l47 27 0
177 c-1 240 -13 265 -182 363 -40 23 -131 77 -203 119 -71 43 -150 89 -175
103 -25 13 -88 51 -140 82 -175 106 -233 123 -320 91z"/>
</g>
</svg>
