<?xml version="1.0" standalone="no"?>
<!DOCTYPE svg PUBLIC "-//W3C//DTD SVG 20010904//EN"
 "http://www.w3.org/TR/2001/REC-SVG-20010904/DTD/svg10.dtd">
<svg version="1.0" xmlns="http://www.w3.org/2000/svg"
 width="1200.000000pt" height="423.000000pt" viewBox="0 0 1200.000000 423.000000"
 preserveAspectRatio="xMidYMid meet">

<g transform="translate(0.000000,423.000000) scale(0.100000,-0.100000)"
fill="#000000" stroke="none">
<path d="M1384 3331 c-77 -35 -589 -333 -617 -359 -15 -14 -36 -44 -47 -67
-19 -39 -20 -62 -20 -399 0 -390 3 -413 54 -471 40 -44 592 -364 660 -382 35
-9 61 -10 94 -2 28 6 256 132 622 344 318 184 584 335 592 334 7 0 119 -62
248 -138 l235 -137 0 -284 0 -284 -238 -138 c-131 -76 -244 -138 -250 -138 -7
1 -118 63 -247 138 l-235 137 -3 153 c-1 83 -4 152 -6 152 -2 0 -64 -35 -137
-78 l-134 -78 0 -119 c0 -129 14 -173 67 -221 12 -12 158 -100 323 -195 285
-164 303 -173 361 -177 51 -3 70 0 110 20 96 49 579 331 602 352 13 11 34 39
45 61 21 39 22 50 22 415 0 368 0 376 -22 416 -12 23 -35 52 -50 65 -16 13
-161 101 -323 194 l-295 170 -75 0 -75 0 -585 -339 c-322 -187 -589 -339 -595
-339 -5 0 -117 62 -248 138 l-237 137 2 286 3 286 239 139 c203 117 243 137
260 128 12 -5 120 -68 241 -138 l220 -129 3 -152 c1 -84 5 -152 8 -152 4 0 66
34 140 76 l134 76 0 117 c0 129 -14 174 -66 223 -34 31 -582 349 -633 366 -48
17 -100 14 -147 -7z"/>
<path d="M6510 2340 l0 -710 135 0 135 0 0 710 0 710 -135 0 -135 0 0 -710z"/>
<path d="M4669 2630 c-63 -11 -128 -41 -172 -80 l-37 -32 0 51 0 51 -135 0
-135 0 0 -695 0 -695 135 0 135 0 0 242 0 241 23 -20 c115 -106 361 -104 520
5 131 91 206 270 193 467 -16 261 -152 428 -376 464 -72 12 -85 12 -151 1z
m116 -249 c46 -20 100 -78 123 -130 11 -24 16 -67 16 -126 1 -74 -3 -98 -22
-137 -92 -187 -349 -184 -433 4 -18 41 -23 71 -23 133 0 62 5 92 23 133 26 58
87 117 136 131 52 16 137 12 180 -8z"/>
<path d="M5734 2631 c-262 -41 -434 -242 -434 -506 0 -150 45 -261 144 -361
103 -103 217 -147 376 -147 159 0 286 50 383 152 94 98 137 211 137 356 0 286
-194 489 -485 509 -38 2 -93 1 -121 -3z m167 -243 c56 -16 113 -69 140 -130
33 -75 33 -191 0 -266 -44 -98 -133 -149 -242 -139 -118 10 -200 91 -221 218
-36 214 129 376 323 317z"/>
<path d="M8290 2629 c-30 -5 -87 -25 -126 -44 -159 -78 -244 -238 -244 -460 0
-222 85 -383 244 -460 155 -76 337 -67 453 22 l46 35 -5 -89 c-3 -69 -9 -97
-26 -125 -40 -64 -60 -68 -331 -68 l-241 0 0 -106 0 -105 308 3 307 3 61 28
c73 34 135 94 166 162 l23 50 3 573 3 572 -136 0 -135 0 0 -45 c0 -25 -2 -45
-5 -45 -3 0 -18 11 -33 25 -37 35 -97 61 -167 74 -66 12 -87 12 -165 0z m246
-253 c89 -42 134 -125 134 -251 0 -120 -42 -205 -123 -247 -33 -18 -59 -23
-118 -23 -67 0 -81 3 -124 30 -70 44 -107 114 -113 214 -5 90 7 139 48 204 58
92 188 124 296 73z"/>
<path d="M9534 2631 c-260 -41 -434 -244 -434 -506 0 -297 216 -508 520 -509
158 0 286 51 383 153 95 99 137 209 137 356 0 286 -193 489 -485 509 -38 2
-93 1 -121 -3z m167 -243 c54 -16 112 -68 140 -125 19 -40 23 -64 23 -138 -1
-133 -41 -206 -139 -251 -123 -58 -262 -9 -321 113 -24 48 -28 69 -28 137 1
126 43 204 136 250 58 29 124 34 189 14z"/>
<path d="M10797 2630 c-70 -12 -149 -54 -191 -100 l-36 -40 0 65 0 66 -137 -3
-138 -3 0 -490 0 -490 137 -3 137 -3 3 309 3 309 30 48 c52 84 159 119 249 81
46 -19 93 -81 106 -138 5 -28 10 -172 10 -328 l0 -280 135 0 136 0 -3 363 c-3
356 -3 363 -27 422 -63 155 -238 246 -414 215z"/>
<path d="M6924 2583 c8 -21 89 -242 180 -492 l167 -454 -71 -198 c-38 -108
-70 -200 -70 -203 0 -3 58 -6 129 -6 l128 0 53 153 c29 83 140 392 246 684
107 293 194 537 194 543 0 6 -52 10 -138 10 l-137 0 -100 -311 c-55 -171 -102
-312 -105 -314 -3 -1 -51 137 -106 309 l-101 311 -141 3 -141 3 13 -38z"/>
</g>
</svg>
